<svg xmlns="http://www.w3.org/2000/svg" viewBox="0 0 769.22 796.98" aria-hidden="true"><path fill="currentColor" d="M544.86,0H49.74c-9.25,0-16.74,7.49-16.74,16.74v625.28c0,9.25,7.49,16.74,16.74,16.74h466.73c59.63,0,107.98-48.34,107.98-107.98v-291.95c0-59.63-48.34-107.98-107.98-107.98H187.7c-7.92,0-14.35,6.42-14.35,14.35v335.51c0,7.92,6.42,14.35,14.35,14.35h271.19c10.75,0,19.46-8.71,19.46-19.46v-181.48c0-10.17-8.53-18.25-18.69-17.71l-142.27,7.66v50.93l68.97,12.71c9.63,1.77,16.62,10.17,16.62,19.96v39.06c0,7.06-5.73,12.79-12.79,12.79h-130.41c-6.96,0-12.6-5.64-12.6-12.6v-188.94c0-6.96,5.64-12.6,12.6-12.6h248.32c23.16,0,41.93,18.77,41.93,41.93v274.84c0,23.16-18.77,41.93-41.93,41.93H121.02c-7.75,0-14.02-6.28-14.02-14.02V90.6c0-7.75,6.28-14.02,14.02-14.02h408.28c91.75,0,166.13,74.38,166.13,166.13v312.71c0,91.75-74.38,166.13-166.14,166.13H33L0,761.67l33,35.1,511.86.22c123.91,0,224.36-100.45,224.36-224.36V224.36C769.22,100.45,668.77,0,544.86,0Z"/></svg>
